<svg width="528" height="311" viewBox="0 0 528 311" fill="none" xmlns="http://www.w3.org/2000/svg">
<rect width="528" height="311" fill="#1E1E1E"/>
<rect width="528" height="311" fill="#4FC3F7"/>
<path d="M414.267 176.3V276.633C416.847 273.193 421.147 270.9 425.733 270.9C429.747 270.9 433.473 272.62 436.34 275.487C438.346 274.34 440.64 273.767 442.933 273.767C448.953 273.767 454.4 277.78 456.407 283.227C459.273 277.78 465.007 273.767 471.6 273.767C473.607 273.767 475.613 274.053 477.333 274.627V176.3H414.267Z" fill="#E6EEF3"/>
<path d="M379.867 279.5C379.867 270.04 387.607 262.3 397.067 262.3C405.667 262.3 412.833 268.607 413.98 276.92C413.98 276.92 413.98 276.633 414.267 276.633V176.3H431.467V130.433H354.067V296.7H362.667C362.667 287.24 370.407 279.5 379.867 279.5Z" fill="#CAD3DB"/>
<path d="M428.6 196.367C426.88 196.367 425.733 195.22 425.733 193.5V187.767C425.733 186.047 426.88 184.9 428.6 184.9C430.32 184.9 431.467 186.047 431.467 187.767V193.5C431.467 195.22 430.32 196.367 428.6 196.367ZM428.6 213.567C426.88 213.567 425.733 212.42 425.733 210.7V204.967C425.733 203.247 426.88 202.1 428.6 202.1C430.32 202.1 431.467 203.247 431.467 204.967V210.7C431.467 212.42 430.32 213.567 428.6 213.567ZM428.6 230.767C426.88 230.767 425.733 229.62 425.733 227.9V222.167C425.733 220.447 426.88 219.3 428.6 219.3C430.32 219.3 431.467 220.447 431.467 222.167V227.9C431.467 229.62 430.32 230.767 428.6 230.767ZM428.6 247.967C426.88 247.967 425.733 246.82 425.733 245.1V239.367C425.733 237.647 426.88 236.5 428.6 236.5C430.32 236.5 431.467 237.647 431.467 239.367V245.1C431.467 246.82 430.32 247.967 428.6 247.967ZM428.6 265.167C426.88 265.167 425.733 264.02 425.733 262.3V256.567C425.733 254.847 426.88 253.7 428.6 253.7C430.32 253.7 431.467 254.847 431.467 256.567V262.3C431.467 264.02 430.32 265.167 428.6 265.167Z" fill="#CAD3DB"/>
<path d="M445.8 196.367C444.08 196.367 442.933 195.22 442.933 193.5V187.767C442.933 186.047 444.08 184.9 445.8 184.9C447.52 184.9 448.667 186.047 448.667 187.767V193.5C448.667 195.22 447.52 196.367 445.8 196.367ZM445.8 213.567C444.08 213.567 442.933 212.42 442.933 210.7V204.967C442.933 203.247 444.08 202.1 445.8 202.1C447.52 202.1 448.667 203.247 448.667 204.967V210.7C448.667 212.42 447.52 213.567 445.8 213.567ZM445.8 230.767C444.08 230.767 442.933 229.62 442.933 227.9V222.167C442.933 220.447 444.08 219.3 445.8 219.3C447.52 219.3 448.667 220.447 448.667 222.167V227.9C448.667 229.62 447.52 230.767 445.8 230.767ZM445.8 247.967C444.08 247.967 442.933 246.82 442.933 245.1V239.367C442.933 237.647 444.08 236.5 445.8 236.5C447.52 236.5 448.667 237.647 448.667 239.367V245.1C448.667 246.82 447.52 247.967 445.8 247.967ZM445.8 265.167C444.08 265.167 442.933 264.02 442.933 262.3V256.567C442.933 254.847 444.08 253.7 445.8 253.7C447.52 253.7 448.667 254.847 448.667 256.567V262.3C448.667 264.02 447.52 265.167 445.8 265.167ZM445.8 276.92C444.08 276.92 442.933 275.773 442.933 274.053V273.767C442.933 272.047 444.08 270.9 445.8 270.9C447.52 270.9 448.667 272.047 448.667 273.767V274.053C448.667 275.773 447.52 276.92 445.8 276.92Z" fill="#CAD3DB"/>
<path d="M463 196.367C461.28 196.367 460.133 195.22 460.133 193.5V187.767C460.133 186.047 461.28 184.9 463 184.9C464.72 184.9 465.867 186.047 465.867 187.767V193.5C465.867 195.22 464.72 196.367 463 196.367ZM463 213.567C461.28 213.567 460.133 212.42 460.133 210.7V204.967C460.133 203.247 461.28 202.1 463 202.1C464.72 202.1 465.867 203.247 465.867 204.967V210.7C465.867 212.42 464.72 213.567 463 213.567ZM463 230.767C461.28 230.767 460.133 229.62 460.133 227.9V222.167C460.133 220.447 461.28 219.3 463 219.3C464.72 219.3 465.867 220.447 465.867 222.167V227.9C465.867 229.62 464.72 230.767 463 230.767ZM463 247.967C461.28 247.967 460.133 246.82 460.133 245.1V239.367C460.133 237.647 461.28 236.5 463 236.5C464.72 236.5 465.867 237.647 465.867 239.367V245.1C465.867 246.82 464.72 247.967 463 247.967ZM463 265.167C461.28 265.167 460.133 264.02 460.133 262.3V256.567C460.133 254.847 461.28 253.7 463 253.7C464.72 253.7 465.867 254.847 465.867 256.567V262.3C465.867 264.02 464.72 265.167 463 265.167ZM463 278.927C461.28 278.927 460.133 277.78 460.133 276.06V273.767C460.133 272.047 461.28 270.9 463 270.9C464.72 270.9 465.867 272.047 465.867 273.767V276.06C465.867 277.78 464.72 278.927 463 278.927Z" fill="#CAD3DB"/>
<path d="M365.533 150.5C363.813 150.5 362.667 149.353 362.667 147.633V141.9C362.667 140.18 363.813 139.033 365.533 139.033C367.253 139.033 368.4 140.18 368.4 141.9V147.633C368.4 149.353 367.253 150.5 365.533 150.5ZM365.533 167.7C363.813 167.7 362.667 166.553 362.667 164.833V159.1C362.667 157.38 363.813 156.233 365.533 156.233C367.253 156.233 368.4 157.38 368.4 159.1V164.833C368.4 166.553 367.253 167.7 365.533 167.7ZM365.533 184.9C363.813 184.9 362.667 183.753 362.667 182.033V176.3C362.667 174.58 363.813 173.433 365.533 173.433C367.253 173.433 368.4 174.58 368.4 176.3V182.033C368.4 183.753 367.253 184.9 365.533 184.9ZM365.533 202.1C363.813 202.1 362.667 200.953 362.667 199.233V193.5C362.667 191.78 363.813 190.633 365.533 190.633C367.253 190.633 368.4 191.78 368.4 193.5V199.233C368.4 200.953 367.253 202.1 365.533 202.1ZM365.533 219.3C363.813 219.3 362.667 218.153 362.667 216.433V210.7C362.667 208.98 363.813 207.833 365.533 207.833C367.253 207.833 368.4 208.98 368.4 210.7V216.433C368.4 218.153 367.253 219.3 365.533 219.3ZM365.533 236.5C363.813 236.5 362.667 235.353 362.667 233.633V227.9C362.667 226.18 363.813 225.033 365.533 225.033C367.253 225.033 368.4 226.18 368.4 227.9V233.633C368.4 235.353 367.253 236.5 365.533 236.5ZM365.533 253.7C363.813 253.7 362.667 252.553 362.667 250.833V245.1C362.667 243.38 363.813 242.233 365.533 242.233C367.253 242.233 368.4 243.38 368.4 245.1V250.833C368.4 252.553 367.253 253.7 365.533 253.7ZM365.533 270.9C363.813 270.9 362.667 269.753 362.667 268.033V262.3C362.667 260.58 363.813 259.433 365.533 259.433C367.253 259.433 368.4 260.58 368.4 262.3V268.033C368.4 269.753 367.253 270.9 365.533 270.9ZM365.533 288.1C363.813 288.1 362.667 286.953 362.667 285.233V279.5C362.667 277.78 363.813 276.633 365.533 276.633C367.253 276.633 368.4 277.78 368.4 279.5V285.233C368.4 286.953 367.253 288.1 365.533 288.1Z" fill="#E6EEF3"/>
<path d="M382.733 150.5C381.013 150.5 379.867 149.353 379.867 147.633V141.9C379.867 140.18 381.013 139.033 382.733 139.033C384.453 139.033 385.6 140.18 385.6 141.9V147.633C385.6 149.353 384.453 150.5 382.733 150.5ZM382.733 167.7C381.013 167.7 379.867 166.553 379.867 164.833V159.1C379.867 157.38 381.013 156.233 382.733 156.233C384.453 156.233 385.6 157.38 385.6 159.1V164.833C385.6 166.553 384.453 167.7 382.733 167.7ZM382.733 184.9C381.013 184.9 379.867 183.753 379.867 182.033V176.3C379.867 174.58 381.013 173.433 382.733 173.433C384.453 173.433 385.6 174.58 385.6 176.3V182.033C385.6 183.753 384.453 184.9 382.733 184.9ZM382.733 202.1C381.013 202.1 379.867 200.953 379.867 199.233V193.5C379.867 191.78 381.013 190.633 382.733 190.633C384.453 190.633 385.6 191.78 385.6 193.5V199.233C385.6 200.953 384.453 202.1 382.733 202.1ZM382.733 219.3C381.013 219.3 379.867 218.153 379.867 216.433V210.7C379.867 208.98 381.013 207.833 382.733 207.833C384.453 207.833 385.6 208.98 385.6 210.7V216.433C385.6 218.153 384.453 219.3 382.733 219.3ZM382.733 236.5C381.013 236.5 379.867 235.353 379.867 233.633V227.9C379.867 226.18 381.013 225.033 382.733 225.033C384.453 225.033 385.6 226.18 385.6 227.9V233.633C385.6 235.353 384.453 236.5 382.733 236.5ZM382.733 253.7C381.013 253.7 379.867 252.553 379.867 250.833V245.1C379.867 243.38 381.013 242.233 382.733 242.233C384.453 242.233 385.6 243.38 385.6 245.1V250.833C385.6 252.553 384.453 253.7 382.733 253.7ZM382.733 270.9C381.013 270.9 379.867 269.753 379.867 268.033V262.3C379.867 260.58 381.013 259.433 382.733 259.433C384.453 259.433 385.6 260.58 385.6 262.3V268.033C385.6 269.753 384.453 270.9 382.733 270.9Z" fill="#E6EEF3"/>
<path d="M399.933 150.5C398.213 150.5 397.067 149.353 397.067 147.633V141.9C397.067 140.18 398.213 139.033 399.933 139.033C401.653 139.033 402.8 140.18 402.8 141.9V147.633C402.8 149.353 401.653 150.5 399.933 150.5ZM399.933 167.7C398.213 167.7 397.067 166.553 397.067 164.833V159.1C397.067 157.38 398.213 156.233 399.933 156.233C401.653 156.233 402.8 157.38 402.8 159.1V164.833C402.8 166.553 401.653 167.7 399.933 167.7ZM399.933 184.9C398.213 184.9 397.067 183.753 397.067 182.033V176.3C397.067 174.58 398.213 173.433 399.933 173.433C401.653 173.433 402.8 174.58 402.8 176.3V182.033C402.8 183.753 401.653 184.9 399.933 184.9ZM399.933 202.1C398.213 202.1 397.067 200.953 397.067 199.233V193.5C397.067 191.78 398.213 190.633 399.933 190.633C401.653 190.633 402.8 191.78 402.8 193.5V199.233C402.8 200.953 401.653 202.1 399.933 202.1ZM399.933 219.3C398.213 219.3 397.067 218.153 397.067 216.433V210.7C397.067 208.98 398.213 207.833 399.933 207.833C401.653 207.833 402.8 208.98 402.8 210.7V216.433C402.8 218.153 401.653 219.3 399.933 219.3ZM399.933 236.5C398.213 236.5 397.067 235.353 397.067 233.633V227.9C397.067 226.18 398.213 225.033 399.933 225.033C401.653 225.033 402.8 226.18 402.8 227.9V233.633C402.8 235.353 401.653 236.5 399.933 236.5ZM399.933 253.7C398.213 253.7 397.067 252.553 397.067 250.833V245.1C397.067 243.38 398.213 242.233 399.933 242.233C401.653 242.233 402.8 243.38 402.8 245.1V250.833C402.8 252.553 401.653 253.7 399.933 253.7Z" fill="#E6EEF3"/>
<path d="M417.133 150.5C415.413 150.5 414.267 149.353 414.267 147.633V141.9C414.267 140.18 415.413 139.033 417.133 139.033C418.853 139.033 420 140.18 420 141.9V147.633C420 149.353 418.853 150.5 417.133 150.5ZM417.133 167.7C415.413 167.7 414.267 166.553 414.267 164.833V159.1C414.267 157.38 415.413 156.233 417.133 156.233C418.853 156.233 420 157.38 420 159.1V164.833C420 166.553 418.853 167.7 417.133 167.7Z" fill="#E6EEF3"/>
<path d="M487.94 296.7C488.513 294.98 488.8 292.973 488.8 290.967C488.8 281.507 481.06 273.767 471.6 273.767C465.007 273.767 459.273 277.493 456.407 283.227C454.4 277.78 448.953 273.767 442.933 273.767C434.907 273.767 428.6 280.073 428.6 288.1C428.6 291.253 429.746 294.407 431.466 296.7H454.4H487.94Z" fill="#24AE5F"/>
<path d="M417.133 296.7H431.467C429.747 294.407 428.6 291.253 428.6 288.1C428.6 282.653 431.754 278.067 436.34 275.487C433.76 272.62 430.034 270.9 425.734 270.9C420.86 270.9 416.56 273.193 413.98 276.92C412.834 268.607 405.667 262.3 397.067 262.3C387.607 262.3 379.867 270.04 379.867 279.5C370.407 279.5 362.667 287.24 362.667 296.7H397.067H417.133Z" fill="#42C775"/>
<path d="M503.133 300.522H336.867C335.147 300.522 334 299.185 334 297.178C334 295.171 335.147 293.833 336.867 293.833H503.133C504.853 293.833 506 295.171 506 297.178C506 299.185 504.853 300.522 503.133 300.522Z" fill="#E6EEF3"/>
<g clip-path="url(#clip0_0_1)">
<path d="M171.724 176.828C169.448 176.828 167.931 175.311 167.931 173.034V165.448C167.931 163.172 169.448 161.655 171.724 161.655C174 161.655 175.517 163.172 175.517 165.448V173.034C175.517 175.311 174 176.828 171.724 176.828Z" fill="#E6EEF3"/>
<path d="M130 108.552V82H84.4828V108.552H69.3105V210.966H99.655V188.207H145.172V108.552H130Z" fill="#CAD3DB"/>
<path d="M23.7933 302H99.655V210.966H23.7933V302Z" fill="#E6EEF3"/>
<path d="M99.655 302H190.689V188.207H99.655V302Z" fill="#E6EEF3"/>
<path d="M31.3794 210.966H54.1378V195.793H31.3794V210.966Z" fill="#CAD3DB"/>
<path d="M69.3105 302H99.655V226.138H69.3105V302Z" fill="#CAD3DB"/>
<path d="M114.828 294.414C112.552 294.414 111.034 292.897 111.034 290.621V203.379C111.034 201.103 112.552 199.586 114.828 199.586C117.104 199.586 118.621 201.103 118.621 203.379V290.621C118.621 292.897 117.103 294.414 114.828 294.414Z" fill="#CAD3DB"/>
<path d="M130 294.414C127.724 294.414 126.207 292.897 126.207 290.621V203.379C126.207 201.103 127.724 199.586 130 199.586C132.276 199.586 133.793 201.103 133.793 203.379V290.621C133.793 292.897 132.276 294.414 130 294.414Z" fill="#CAD3DB"/>
<path d="M145.172 294.414C142.896 294.414 141.379 292.897 141.379 290.621V203.379C141.379 201.103 142.896 199.586 145.172 199.586C147.448 199.586 148.966 201.103 148.966 203.379V290.621C148.966 292.897 147.448 294.414 145.172 294.414Z" fill="#CAD3DB"/>
<path d="M160.345 294.414C158.069 294.414 156.552 292.897 156.552 290.621V203.379C156.552 201.103 158.069 199.586 160.345 199.586C162.621 199.586 164.138 201.103 164.138 203.379V290.621C164.138 292.897 162.621 294.414 160.345 294.414Z" fill="#CAD3DB"/>
<path d="M175.517 294.414C173.241 294.414 171.724 292.897 171.724 290.621V203.379C171.724 201.103 173.241 199.586 175.517 199.586C177.793 199.586 179.311 201.103 179.311 203.379V290.621C179.311 292.897 177.793 294.414 175.517 294.414Z" fill="#CAD3DB"/>
<path d="M164.138 188.207H179.311V173.034H164.138V188.207Z" fill="#CAD3DB"/>
<path d="M190.69 302H236.207V123.724H190.69V302Z" fill="#CAD3DB"/>
<path d="M202.069 123.724H224.828V108.552H202.069V123.724Z" fill="#E6EEF3"/>
<path d="M99.655 245.103H84.4828C82.2067 245.103 80.6895 243.586 80.6895 241.31C80.6895 239.034 82.2067 237.517 84.4828 237.517H99.655C101.931 237.517 103.448 239.034 103.448 241.31C103.448 243.586 101.931 245.103 99.655 245.103Z" fill="#E6EEF3"/>
<path d="M99.655 260.276H84.4828C82.2067 260.276 80.6895 258.759 80.6895 256.483C80.6895 254.207 82.2067 252.689 84.4828 252.689H99.655C101.931 252.689 103.448 254.207 103.448 256.483C103.448 258.759 101.931 260.276 99.655 260.276Z" fill="#E6EEF3"/>
<path d="M99.655 275.448H84.4828C82.2067 275.448 80.6895 273.931 80.6895 271.655C80.6895 269.379 82.2067 267.862 84.4828 267.862H99.655C101.931 267.862 103.448 269.379 103.448 271.655C103.448 273.931 101.931 275.448 99.655 275.448Z" fill="#E6EEF3"/>
<path d="M99.655 290.621H84.4828C82.2067 290.621 80.6895 289.103 80.6895 286.827C80.6895 284.551 82.2067 283.034 84.4828 283.034H99.655C101.931 283.034 103.448 284.551 103.448 286.827C103.448 289.103 101.931 290.621 99.655 290.621Z" fill="#E6EEF3"/>
<path d="M84.4828 214.759C82.2067 214.759 80.6895 213.242 80.6895 210.966V123.724C80.6895 121.448 82.2067 119.931 84.4828 119.931C86.7588 119.931 88.276 121.448 88.276 123.724V210.965C88.276 213.241 86.7588 214.759 84.4828 214.759Z" fill="#E6EEF3"/>
<path d="M99.655 180.621C97.379 180.621 95.8618 179.103 95.8618 176.827V123.724C95.8618 121.448 97.379 119.931 99.655 119.931C101.931 119.931 103.448 121.448 103.448 123.724V176.828C103.448 179.103 101.931 180.621 99.655 180.621Z" fill="#E6EEF3"/>
<path d="M114.828 180.621C112.552 180.621 111.034 179.103 111.034 176.827V123.724C111.034 121.448 112.552 119.931 114.828 119.931C117.104 119.931 118.621 121.448 118.621 123.724V176.828C118.621 179.103 117.103 180.621 114.828 180.621Z" fill="#E6EEF3"/>
<path d="M130 180.621C127.724 180.621 126.207 179.103 126.207 176.827V123.724C126.207 121.448 127.724 119.931 130 119.931C132.276 119.931 133.793 121.448 133.793 123.724V176.828C133.793 179.103 132.276 180.621 130 180.621Z" fill="#E6EEF3"/>
<path d="M205.862 151.034C203.586 151.034 202.069 149.517 202.069 147.241V139.655C202.069 137.379 203.586 135.862 205.862 135.862C208.138 135.862 209.655 137.379 209.655 139.655V147.241C209.655 149.138 208.138 151.034 205.862 151.034ZM205.862 173.793C203.586 173.793 202.069 172.276 202.069 170V162.414C202.069 160.138 203.586 158.621 205.862 158.621C208.138 158.621 209.655 160.138 209.655 162.414V170C209.655 171.897 208.138 173.793 205.862 173.793ZM205.862 196.552C203.586 196.552 202.069 195.034 202.069 192.758V185.172C202.069 182.896 203.586 181.379 205.862 181.379C208.138 181.379 209.655 182.896 209.655 185.172V192.758C209.655 194.655 208.138 196.552 205.862 196.552ZM205.862 219.311C203.586 219.311 202.069 217.793 202.069 215.517V207.931C202.069 205.655 203.586 204.138 205.862 204.138C208.138 204.138 209.655 205.655 209.655 207.931V215.517C209.655 217.414 208.138 219.311 205.862 219.311ZM205.862 242.069C203.586 242.069 202.069 240.552 202.069 238.276V230.689C202.069 228.413 203.586 226.896 205.862 226.896C208.138 226.896 209.655 228.413 209.655 230.689V238.276C209.655 240.172 208.138 242.069 205.862 242.069ZM205.862 264.828C203.586 264.828 202.069 263.31 202.069 261.034V253.448C202.069 251.172 203.586 249.655 205.862 249.655C208.138 249.655 209.655 251.172 209.655 253.448V261.034C209.655 262.931 208.138 264.828 205.862 264.828ZM205.862 287.586C203.586 287.586 202.069 286.069 202.069 283.793V276.207C202.069 273.931 203.586 272.413 205.862 272.413C208.138 272.413 209.655 273.931 209.655 276.207V283.793C209.655 285.689 208.138 287.586 205.862 287.586Z" fill="#E6EEF3"/>
<path d="M221.034 151.034C218.758 151.034 217.241 149.517 217.241 147.241V139.655C217.241 137.379 218.758 135.862 221.034 135.862C223.311 135.862 224.828 137.379 224.828 139.655V147.241C224.828 149.138 223.311 151.034 221.034 151.034ZM221.034 173.793C218.758 173.793 217.241 172.276 217.241 170V162.414C217.241 160.138 218.758 158.621 221.034 158.621C223.311 158.621 224.828 160.138 224.828 162.414V170C224.828 171.897 223.311 173.793 221.034 173.793ZM221.034 196.552C218.758 196.552 217.241 195.034 217.241 192.758V185.172C217.241 182.896 218.758 181.379 221.034 181.379C223.311 181.379 224.828 182.896 224.828 185.172V192.758C224.828 194.655 223.311 196.552 221.034 196.552ZM221.034 219.311C218.758 219.311 217.241 217.793 217.241 215.517V207.931C217.241 205.655 218.758 204.138 221.034 204.138C223.311 204.138 224.828 205.655 224.828 207.931V215.517C224.828 217.414 223.311 219.311 221.034 219.311ZM221.034 242.069C218.758 242.069 217.241 240.552 217.241 238.276V230.689C217.241 228.413 218.758 226.896 221.034 226.896C223.311 226.896 224.828 228.413 224.828 230.689V238.276C224.828 240.172 223.311 242.069 221.034 242.069ZM221.034 264.828C218.758 264.828 217.241 263.31 217.241 261.034V253.448C217.241 251.172 218.758 249.655 221.034 249.655C223.311 249.655 224.828 251.172 224.828 253.448V261.034C224.828 262.931 223.311 264.828 221.034 264.828ZM221.034 287.586C218.758 287.586 217.241 286.069 217.241 283.793V276.207C217.241 273.931 218.758 272.413 221.034 272.413C223.311 272.413 224.828 273.931 224.828 276.207V283.793C224.828 285.689 223.311 287.586 221.034 287.586Z" fill="#E6EEF3"/>
<path d="M38.9656 237.517C36.6895 237.517 35.1723 236 35.1723 233.724V226.138C35.1723 223.862 36.6895 222.345 38.9656 222.345C41.2416 222.345 42.7588 223.862 42.7588 226.138V233.724C42.7588 236 41.2412 237.517 38.9656 237.517ZM38.9656 260.276C36.6895 260.276 35.1723 258.759 35.1723 256.483V248.897C35.1723 246.621 36.6895 245.103 38.9656 245.103C41.2416 245.103 42.7588 246.621 42.7588 248.897V256.483C42.7588 258.759 41.2412 260.276 38.9656 260.276ZM38.9656 283.034C36.6895 283.034 35.1723 281.517 35.1723 279.241V271.655C35.1723 269.379 36.6895 267.862 38.9656 267.862C41.2416 267.862 42.7588 269.379 42.7588 271.655V279.241C42.7588 281.517 41.2412 283.034 38.9656 283.034Z" fill="#CAD3DB"/>
<path d="M54.1378 237.517C51.8618 237.517 50.3445 236 50.3445 233.724V226.138C50.3445 223.862 51.8618 222.345 54.1378 222.345C56.4139 222.345 57.9311 223.862 57.9311 226.138V233.724C57.9311 236 56.4139 237.517 54.1378 237.517ZM54.1378 260.276C51.8618 260.276 50.3445 258.759 50.3445 256.483V248.897C50.3445 246.621 51.8618 245.103 54.1378 245.103C56.4139 245.103 57.9311 246.621 57.9311 248.897V256.483C57.9311 258.759 56.4139 260.276 54.1378 260.276ZM54.1378 283.034C51.8618 283.034 50.3445 281.517 50.3445 279.241V271.655C50.3445 269.379 51.8618 267.862 54.1378 267.862C56.4139 267.862 57.9311 269.379 57.9311 271.655V279.241C57.9311 281.517 56.4139 283.034 54.1378 283.034Z" fill="#CAD3DB"/>
<path d="M99.655 112.345C97.379 112.345 95.8618 110.828 95.8618 108.552V97.1723C95.8618 94.8962 97.379 93.379 99.655 93.379C101.931 93.379 103.448 94.8962 103.448 97.1723V108.552C103.448 110.828 101.931 112.345 99.655 112.345Z" fill="#E6EEF3"/>
<path d="M114.828 112.345C112.552 112.345 111.034 110.828 111.034 108.552V97.1723C111.034 94.8962 112.552 93.379 114.828 93.379C117.104 93.379 118.621 94.8962 118.621 97.1723V108.552C118.621 110.828 117.103 112.345 114.828 112.345Z" fill="#E6EEF3"/>
</g>
<rect y="301" width="528" height="10" fill="#455A64"/>
<circle cx="471" cy="57" r="35" fill="#FFF176"/>
<defs>
<clipPath id="clip0_0_1">
<rect width="220" height="220" fill="white" transform="translate(20 82)"/>
</clipPath>
</defs>
</svg>
